<?xml version="1.0" standalone="no"?>
<!DOCTYPE svg PUBLIC "-//W3C//DTD SVG 20010904//EN"
 "http://www.w3.org/TR/2001/REC-SVG-20010904/DTD/svg10.dtd">
<svg version="1.0" xmlns="http://www.w3.org/2000/svg"
 width="1040.000000pt" height="1040.000000pt" viewBox="0 0 1040.000000 1040.000000"
 preserveAspectRatio="xMidYMid meet">
<metadata>
Created by potrace 1.11, written by Peter Selinger 2001-2013
</metadata>
<g transform="translate(0.000000,1040.000000) scale(0.100000,-0.100000)"
fill="#000000" stroke="none">
<path d="M4938 10395 c-2 -2 -53 -6 -114 -9 -61 -4 -119 -8 -130 -10 -10 -2
-50 -7 -89 -10 -58 -6 -277 -39 -400 -61 -16 -3 -100 -21 -185 -41 -586 -134
-1187 -393 -1690 -728 -73 -48 -304 -215 -345 -248 -266 -218 -518 -455 -670
-633 -33 -39 -65 -74 -71 -80 -18 -16 -166 -203 -242 -306 -142 -192 -329
-495 -426 -689 -21 -41 -41 -82 -46 -90 -5 -8 -18 -35 -29 -60 -11 -25 -36
-81 -56 -125 -123 -269 -283 -757 -329 -1005 -2 -14 -13 -72 -24 -130 -22
-113 -29 -153 -37 -215 -3 -22 -7 -49 -10 -60 -2 -11 -7 -51 -10 -90 -4 -38
-8 -81 -10 -94 -20 -123 -27 -681 -11 -901 4 -63 9 -117 11 -120 1 -3 6 -43 9
-89 4 -46 8 -87 10 -90 2 -3 6 -28 10 -56 9 -71 22 -148 40 -240 8 -44 18 -93
21 -110 20 -100 92 -367 139 -512 256 -783 682 -1478 1266 -2063 184 -184 356
-335 554 -484 125 -94 371 -261 446 -302 19 -10 37 -22 38 -26 2 -5 7 -8 12
-8 5 0 48 -23 97 -51 120 -69 381 -196 533 -259 69 -28 134 -55 145 -61 64
-30 480 -159 595 -184 8 -2 56 -13 105 -25 50 -12 101 -24 115 -26 14 -3 36
-7 50 -9 182 -37 418 -67 625 -82 210 -15 682 -9 870 11 17 2 59 7 95 10 97
11 267 36 340 51 14 3 41 8 60 11 253 44 676 171 970 291 126 51 430 196 545
260 765 424 1440 1066 1902 1808 93 150 183 313 263 480 139 287 224 510 315
822 38 131 88 327 101 401 11 63 15 84 29 162 8 47 17 103 20 125 3 22 7 54
10 70 3 17 7 55 10 85 4 30 8 69 10 85 13 100 20 275 19 525 0 286 -6 402 -29
595 -3 22 -8 60 -11 85 -6 55 -12 98 -18 125 -2 11 -7 43 -11 70 -5 28 -9 52
-10 55 -1 3 -5 25 -9 50 -8 47 -26 125 -56 250 -159 657 -462 1303 -868 1850
-71 96 -187 242 -227 286 -5 6 -39 44 -75 85 -65 74 -307 319 -390 395 -458
415 -1019 762 -1590 984 -74 29 -144 56 -155 61 -56 23 -390 124 -475 143 -8
2 -33 9 -55 14 -46 12 -328 68 -395 78 -25 3 -52 8 -60 9 -8 1 -40 6 -70 10
-30 3 -66 8 -80 10 -14 2 -59 7 -100 10 -41 4 -95 9 -120 11 -52 6 -647 14
-652 9z m567 -879 c87 -6 174 -15 217 -22 15 -2 47 -6 70 -9 24 -2 84 -11 133
-20 50 -9 104 -18 120 -21 160 -27 528 -134 710 -206 368 -145 635 -291 989
-538 46 -32 259 -203 313 -251 531 -473 925 -1039 1178 -1689 108 -276 203
-631 240 -895 3 -23 7 -51 10 -64 4 -21 8 -59 20 -176 24 -233 24 -739 0 -849
-2 -12 -7 -48 -9 -81 -6 -66 -12 -109 -28 -200 -5 -33 -12 -71 -14 -85 -2 -14
-9 -47 -15 -75 -6 -27 -13 -61 -15 -75 -13 -71 -80 -307 -123 -437 -153 -457
-390 -898 -688 -1280 -64 -83 -99 -125 -208 -249 -5 -7 -50 -53 -100 -104
-166 -170 -319 -305 -512 -453 -93 -71 -374 -257 -389 -257 -7 0 -14 -4 -16
-8 -1 -4 -34 -25 -71 -46 -482 -268 -962 -429 -1517 -511 -27 -3 -125 -15
-175 -21 -222 -23 -684 -23 -860 1 -16 2 -52 7 -80 10 -581 69 -1156 261
-1655 552 -84 49 -347 219 -360 233 -3 3 -41 32 -85 65 -44 33 -85 64 -91 70
-7 5 -31 26 -55 45 -154 124 -418 385 -545 540 -16 19 -33 40 -39 46 -5 6 -21
26 -35 44 -14 18 -30 38 -35 44 -16 18 -107 143 -177 246 -161 236 -323 541
-423 801 -20 52 -41 103 -46 114 -49 110 -166 537 -194 705 -3 19 -7 46 -10
60 -2 14 -7 43 -10 65 -3 23 -7 51 -10 64 -4 21 -7 48 -20 176 -28 266 -23
727 9 939 3 17 10 69 16 116 6 47 15 103 20 125 5 22 11 58 15 80 3 21 21 105
41 185 216 899 729 1717 1454 2321 99 82 341 258 418 304 318 190 465 266 712
367 132 54 423 151 519 173 9 2 65 16 125 29 61 14 135 30 165 36 31 6 65 12
77 14 12 2 45 7 75 11 30 4 56 8 59 10 3 2 37 6 75 10 39 3 84 8 100 10 17 3
82 7 145 11 63 3 116 7 117 8 5 5 392 -2 468 -8z"/>
<path d="M5146 8842 c-41 -71 -203 -355 -236 -412 -54 -93 -796 -1377 -833
-1440 -26 -47 -58 -101 -69 -120 -25 -43 -353 -612 -380 -660 -22 -38 -107
-184 -123 -212 -5 -9 -28 -47 -49 -85 -62 -107 -591 -1024 -612 -1060 -18 -31
-137 -237 -160 -278 -6 -11 -124 -215 -262 -454 -138 -238 -250 -436 -248
-440 5 -7 1053 -7 1059 0 2 2 49 83 104 179 55 96 200 348 323 560 122 212
232 403 245 425 12 22 55 96 96 165 40 69 88 152 106 185 19 33 43 76 55 95
32 56 313 541 335 580 11 19 147 256 303 525 156 270 312 541 348 603 72 125
64 123 114 32 14 -25 71 -123 127 -219 55 -96 101 -175 101 -177 0 -2 13 -25
29 -51 16 -27 40 -67 53 -89 32 -57 297 -516 309 -534 52 -85 169 -294 169
-301 0 -6 -281 -9 -714 -7 -393 1 -717 0 -720 -3 -5 -4 -371 -631 -436 -744
-100 -176 -216 -375 -231 -397 -11 -15 -19 -30 -19 -32 0 -3 -26 -50 -58 -103
-32 -54 -75 -127 -96 -163 -20 -36 -47 -83 -60 -104 l-23 -39 122 -211 c67
-116 175 -303 240 -416 65 -113 152 -263 193 -335 41 -71 82 -142 91 -157 9
-15 45 -78 81 -140 35 -62 70 -122 77 -133 6 -11 20 -36 31 -55 10 -19 43 -75
72 -125 29 -49 61 -106 72 -125 11 -19 37 -64 58 -100 21 -36 47 -81 58 -100
22 -40 163 -283 295 -510 50 -85 95 -165 101 -177 6 -13 13 -23 16 -23 3 1 69
112 147 248 77 136 198 346 268 467 70 121 138 238 150 260 13 22 114 198 226
390 111 193 215 375 232 405 16 30 36 62 43 71 8 8 14 18 14 21 0 4 184 328
209 368 10 15 111 191 164 285 16 27 71 122 122 210 51 88 142 246 202 350 61
105 136 235 168 290 328 569 697 1207 713 1235 11 19 99 172 196 340 97 167
176 307 176 310 0 3 -232 5 -516 4 l-517 0 -22 -40 c-21 -37 -61 -107 -191
-331 -61 -106 -67 -116 -192 -333 -46 -80 -87 -152 -92 -160 -54 -88 -90 -151
-90 -154 0 -2 -44 -79 -98 -172 -54 -93 -110 -189 -124 -214 -14 -25 -57 -100
-96 -167 -62 -106 -183 -316 -300 -518 -19 -33 -46 -80 -60 -105 -13 -25 -31
-52 -38 -61 -8 -8 -14 -19 -14 -22 0 -6 -605 -1059 -650 -1131 l-17 -28 -31
53 c-16 30 -40 72 -52 93 -12 21 -61 107 -109 190 -82 139 -248 426 -292 504
-11 18 -38 66 -61 105 -22 40 -58 101 -78 137 -20 36 -76 132 -123 214 -48 82
-85 152 -81 155 3 3 325 7 717 8 548 3 714 6 723 16 6 6 66 109 134 227 68
118 171 298 230 400 59 102 202 350 319 553 l211 367 -47 82 c-27 46 -52 90
-58 100 -5 9 -17 29 -26 45 -48 86 -128 225 -139 243 -5 8 -49 85 -98 170 -49
85 -264 457 -477 825 -213 369 -451 781 -529 917 -77 136 -143 247 -146 247
-3 0 -27 -39 -54 -87z"/>
<path d="M2187 6712 c-9 -2 -17 -5 -17 -8 0 -2 17 -32 38 -66 21 -35 52 -88
69 -118 17 -30 54 -95 83 -145 29 -49 62 -106 72 -125 11 -19 72 -125 136
-235 63 -110 123 -214 133 -232 10 -17 29 -50 43 -72 15 -22 26 -42 26 -44 0
-2 33 -61 74 -131 l74 -127 40 68 c22 37 85 147 140 244 55 97 109 191 120
210 188 327 230 403 228 408 -2 3 -39 67 -81 141 -43 74 -91 157 -106 184
l-28 50 -514 0 c-282 1 -521 0 -530 -2z"/>
<path d="M7433 4908 c-22 -40 -74 -129 -114 -198 -40 -69 -96 -165 -124 -215
-29 -49 -93 -161 -143 -248 l-92 -159 117 -201 c63 -111 118 -204 120 -207 2
-2 235 -4 518 -5 506 0 533 2 506 30 -5 6 -128 217 -274 470 -146 253 -273
474 -283 492 -69 118 -161 277 -169 293 -5 11 -12 20 -15 20 -4 0 -24 -33 -47
-72z"/>
</g>
</svg>
